<svg width="208" height="42" viewBox="0 0 208 42" fill="none" xmlns="http://www.w3.org/2000/svg">
<path d="M30.904 41.18C25.8693 41.18 23.116 37.6007 22.644 30.442H12.496C11.7093 32.2513 11.0407 33.9427 10.49 35.516L8.956 40H0.696L19.281 1.06H31.966L34.444 29.734C34.8373 33.864 35.8207 36.5387 37.394 37.758C36.2533 40.0393 34.09 41.18 30.904 41.18ZM14.325 26.135H22.467L21.759 10.972V9.379L17.57 18.642L14.325 26.135ZM43.3779 38.23C42.4732 37.2073 41.8046 35.8897 41.3719 34.277C40.9786 32.6643 40.7819 30.5403 40.7819 27.905C40.7819 25.2697 41.2342 22.7523 42.1389 20.353C43.0436 17.9537 44.3219 15.8887 45.9739 14.158C49.3566 10.5393 53.8406 8.73 59.4259 8.73C61.4319 8.73 63.1626 9.06433 64.6179 9.733L74.7069 8.73L70.3409 31.74C70.2229 32.212 70.1639 32.8807 70.1639 33.746C70.1639 34.6113 70.4196 35.3193 70.9309 35.87C71.4816 36.4207 72.1502 36.7353 72.9369 36.814C72.5436 38.1513 71.6192 39.2133 70.1639 40C68.7479 40.7867 67.2336 41.18 65.6209 41.18C64.0082 41.18 62.6512 40.8653 61.5499 40.236C60.4879 39.646 59.7996 38.8397 59.4849 37.817C58.8556 38.8003 57.8722 39.6067 56.5349 40.236C55.1976 40.8653 53.6242 41.18 51.8149 41.18C50.0449 41.18 48.4322 40.944 46.9769 40.472C45.5216 40 44.3219 39.2527 43.3779 38.23ZM55.8269 14.276C55.3942 14.984 54.9812 15.9477 54.5879 17.167C54.1946 18.347 53.6636 20.5497 52.9949 23.775C52.3656 26.961 52.0509 29.6947 52.0509 31.976C52.0509 34.2573 52.2279 35.7323 52.5819 36.401C52.9359 37.0697 53.4276 37.404 54.0569 37.404C55.3156 37.404 56.3972 36.814 57.3019 35.634C58.2459 34.4147 58.8949 32.743 59.2489 30.619L62.3759 13.332C61.5499 12.624 60.6452 12.27 59.6619 12.27C58.7179 12.27 57.9509 12.4273 57.3609 12.742C56.8102 13.0567 56.2989 13.568 55.8269 14.276ZM95.5297 19.291C96.0804 17.8357 96.3557 16.4787 96.3557 15.22C96.3557 12.8993 95.4117 11.739 93.5237 11.739C92.5404 11.739 91.6357 12.1913 90.8097 13.096C90.0231 13.9613 89.6297 14.9447 89.6297 16.046C89.6297 16.8327 89.9444 17.5407 90.5737 18.17C91.4784 19.0353 93.0911 20.176 95.4117 21.592C97.7324 23.008 99.3254 24.306 100.191 25.486C101.095 26.6267 101.548 28.0033 101.548 29.616C101.548 31.1893 101.154 32.7037 100.368 34.159C99.6204 35.6143 98.5584 36.8533 97.1817 37.876C94.2317 40.0787 90.3967 41.18 85.6767 41.18C83.1201 41.18 80.8584 40.5113 78.8917 39.174C76.9251 37.876 75.9417 36.46 75.9417 34.926C75.9417 33.392 76.4924 32.1727 77.5937 31.268C78.7344 30.3633 80.1307 29.911 81.7827 29.911C83.4347 29.911 84.7721 30.2257 85.7947 30.855C85.2834 32.153 85.0277 33.2347 85.0277 34.1C85.0277 36.696 86.1291 37.994 88.3317 37.994C89.2757 37.994 90.0624 37.699 90.6917 37.109C91.3211 36.519 91.6357 35.7127 91.6357 34.69C91.6357 32.684 89.9444 30.619 86.5617 28.495C83.8084 26.6857 82.1171 25.427 81.4877 24.719C80.4257 23.4603 79.8947 22.0443 79.8947 20.471C79.8947 18.8977 80.2684 17.3637 81.0157 15.869C81.7631 14.3743 82.8251 13.096 84.2017 12.034C87.0731 9.83133 91.0064 8.73 96.0017 8.73C98.5584 8.73 100.584 9.24133 102.079 10.264C103.613 11.2867 104.38 12.6633 104.38 14.394C104.38 16.1247 103.849 17.4817 102.787 18.465C101.764 19.4483 100.309 19.94 98.4207 19.94C97.1227 19.94 96.1591 19.7237 95.5297 19.291ZM129.651 0.646997C139.288 0.646997 144.106 4.04933 144.106 10.854C144.106 14.5907 142.906 17.58 140.507 19.822C138.147 22.064 134.902 23.185 130.772 23.185C128.845 23.185 127.134 22.6343 125.639 21.533C124.931 21.061 124.341 20.5103 123.869 19.881C126.74 19.881 128.923 19.0157 130.418 17.285C131.952 15.515 132.719 12.919 132.719 9.497C132.719 6.075 131.028 4.364 127.645 4.364H126.229C125.993 4.364 125.777 4.38366 125.58 4.423L118.795 40H105.992L113.249 1.355C117.458 0.961665 120.781 0.745332 123.22 0.705999C125.659 0.666664 127.802 0.646997 129.651 0.646997ZM146.916 38.23C146.011 37.2073 145.343 35.8897 144.91 34.277C144.517 32.6643 144.32 30.5403 144.32 27.905C144.32 25.2697 144.772 22.7523 145.677 20.353C146.582 17.9537 147.86 15.8887 149.512 14.158C152.895 10.5393 157.379 8.73 162.964 8.73C164.97 8.73 166.701 9.06433 168.156 9.733L178.245 8.73L173.879 31.74C173.761 32.212 173.702 32.8807 173.702 33.746C173.702 34.6113 173.958 35.3193 174.469 35.87C175.02 36.4207 175.688 36.7353 176.475 36.814C176.082 38.1513 175.157 39.2133 173.702 40C172.286 40.7867 170.772 41.18 169.159 41.18C167.546 41.18 166.189 40.8653 165.088 40.236C164.026 39.646 163.338 38.8397 163.023 37.817C162.394 38.8003 161.41 39.6067 160.073 40.236C158.736 40.8653 157.162 41.18 155.353 41.18C153.583 41.18 151.97 40.944 150.515 40.472C149.06 40 147.86 39.2527 146.916 38.23ZM159.365 14.276C158.932 14.984 158.519 15.9477 158.126 17.167C157.733 18.347 157.202 20.5497 156.533 23.775C155.904 26.961 155.589 29.6947 155.589 31.976C155.589 34.2573 155.766 35.7323 156.12 36.401C156.474 37.0697 156.966 37.404 157.595 37.404C158.854 37.404 159.935 36.814 160.84 35.634C161.784 34.4147 162.433 32.743 162.787 30.619L165.914 13.332C165.088 12.624 164.183 12.27 163.2 12.27C162.256 12.27 161.489 12.4273 160.899 12.742C160.348 13.0567 159.837 13.568 159.365 14.276ZM199.068 19.291C199.618 17.8357 199.894 16.4787 199.894 15.22C199.894 12.8993 198.95 11.739 197.062 11.739C196.078 11.739 195.174 12.1913 194.348 13.096C193.561 13.9613 193.168 14.9447 193.168 16.046C193.168 16.8327 193.482 17.5407 194.112 18.17C195.016 19.0353 196.629 20.176 198.95 21.592C201.27 23.008 202.863 24.306 203.729 25.486C204.633 26.6267 205.086 28.0033 205.086 29.616C205.086 31.1893 204.692 32.7037 203.906 34.159C203.158 35.6143 202.096 36.8533 200.72 37.876C197.77 40.0787 193.935 41.18 189.215 41.18C186.658 41.18 184.396 40.5113 182.43 39.174C180.463 37.876 179.48 36.46 179.48 34.926C179.48 33.392 180.03 32.1727 181.132 31.268C182.272 30.3633 183.669 29.911 185.321 29.911C186.973 29.911 188.31 30.2257 189.333 30.855C188.821 32.153 188.566 33.2347 188.566 34.1C188.566 36.696 189.667 37.994 191.87 37.994C192.814 37.994 193.6 37.699 194.23 37.109C194.859 36.519 195.174 35.7127 195.174 34.69C195.174 32.684 193.482 30.619 190.1 28.495C187.346 26.6857 185.655 25.427 185.026 24.719C183.964 23.4603 183.433 22.0443 183.433 20.471C183.433 18.8977 183.806 17.3637 184.554 15.869C185.301 14.3743 186.363 13.096 187.74 12.034C190.611 9.83133 194.544 8.73 199.54 8.73C202.096 8.73 204.122 9.24133 205.617 10.264C207.151 11.2867 207.918 12.6633 207.918 14.394C207.918 16.1247 207.387 17.4817 206.325 18.465C205.302 19.4483 203.847 19.94 201.959 19.94C200.661 19.94 199.697 19.7237 199.068 19.291Z" fill="#732FCB"/>
</svg>
