<svg width="25" height="24" viewBox="0 0 25 24" fill="none" xmlns="http://www.w3.org/2000/svg">
<path d="M21.3667 19.7143H20.8917C20.8497 19.7143 20.8095 19.6974 20.7798 19.6672C20.7501 19.6371 20.7334 19.5962 20.7334 19.5536V12.7035C20.7338 12.678 20.7281 12.6527 20.7169 12.6298C20.7057 12.6069 20.6893 12.587 20.669 12.5718C20.6487 12.5567 20.6251 12.5466 20.6003 12.5426C20.5754 12.5385 20.5499 12.5405 20.526 12.5484C20.1627 12.6643 19.7855 12.7289 19.405 12.7405C19.3582 12.7405 19.3139 12.7425 19.2704 12.7425C18.5384 12.7443 17.8181 12.5556 17.1784 12.1945C17.1299 12.1671 17.0754 12.1528 17.02 12.1528C16.9646 12.1528 16.9101 12.1671 16.8617 12.1945C16.2221 12.5556 15.502 12.7443 14.7701 12.7425C14.0423 12.7435 13.3267 12.5526 12.6935 12.1884C12.6447 12.1604 12.5895 12.1456 12.5334 12.1456C12.4773 12.1456 12.4221 12.1604 12.3733 12.1884C11.7306 12.554 11.0058 12.745 10.269 12.7429C9.53634 12.7434 8.81626 12.5495 8.18018 12.1804C8.13096 12.152 8.07531 12.137 8.01868 12.137C7.96205 12.137 7.9064 12.152 7.85718 12.1804C7.2211 12.5495 6.50102 12.7434 5.76834 12.7429C5.72519 12.7429 5.68165 12.7429 5.63494 12.7409H5.63257C5.23863 12.7289 4.84837 12.66 4.47355 12.5364C4.44982 12.5286 4.42461 12.5266 4.39997 12.5306C4.37534 12.5346 4.35198 12.5444 4.3318 12.5593C4.31162 12.5742 4.29519 12.5937 4.28384 12.6162C4.2725 12.6388 4.26657 12.6637 4.26653 12.6891V19.5536C4.26653 19.5962 4.24985 19.6371 4.22016 19.6672C4.19046 19.6974 4.15019 19.7143 4.1082 19.7143H3.65298C3.31098 19.7143 3.01568 19.9811 3.00064 20.3282C2.99679 20.415 3.0103 20.5016 3.04035 20.5829C3.0704 20.6642 3.11637 20.7385 3.17548 20.8013C3.2346 20.8641 3.30563 20.9141 3.3843 20.9482C3.46296 20.9824 3.54763 21 3.63319 21H21.3469C21.6889 21 21.9842 20.7332 21.9993 20.3861C22.0031 20.2993 21.9896 20.2127 21.9596 20.1314C21.9295 20.05 21.8836 19.9758 21.8244 19.913C21.7653 19.8502 21.6943 19.8002 21.6156 19.7661C21.537 19.7319 21.4523 19.7143 21.3667 19.7143ZM11.2333 16.9821C11.2333 17.0248 11.2166 17.0656 11.1869 17.0958C11.1572 17.1259 11.1169 17.1429 11.0749 17.1429H7.59157C7.54958 17.1429 7.5093 17.1259 7.47961 17.0958C7.44992 17.0656 7.43323 17.0248 7.43323 16.9821V14.4107C7.43323 14.2828 7.48328 14.1602 7.57236 14.0698C7.66144 13.9794 7.78226 13.9286 7.90824 13.9286H10.7583C10.8843 13.9286 11.0051 13.9794 11.0942 14.0698C11.1832 14.1602 11.2333 14.2828 11.2333 14.4107V16.9821ZM17.4084 19.7143H14.5583C14.5163 19.7143 14.4761 19.6974 14.4464 19.6672C14.4167 19.6371 14.4 19.5962 14.4 19.5536V14.4107C14.4 14.2828 14.45 14.1602 14.5391 14.0698C14.6282 13.9794 14.749 13.9286 14.875 13.9286H17.0917C17.2177 13.9286 17.3385 13.9794 17.4276 14.0698C17.5166 14.1602 17.5667 14.2828 17.5667 14.4107V19.5536C17.5667 19.5962 17.55 19.6371 17.5203 19.6672C17.4906 19.6974 17.4503 19.7143 17.4084 19.7143ZM21.8643 8.55589L20.1654 4.59871C19.7204 3.62759 18.7043 3 17.5766 3H7.42136C6.29362 3 5.2775 3.62759 4.83258 4.59871L3.13364 8.55589C2.77739 9.33576 3.24804 10.1365 3.24844 10.1369L3.25952 10.155C3.27892 10.1863 3.31335 10.2354 3.33433 10.2667C3.33631 10.2691 3.3379 10.2719 3.33987 10.2747L3.53779 10.5178C3.54519 10.527 3.55312 10.5357 3.56154 10.5439L3.75946 10.738L3.77609 10.7525C3.89232 10.8536 4.01665 10.9447 4.14778 11.0249V11.0269C4.57857 11.2918 5.06938 11.4394 5.5728 11.4556H5.67057C6.43227 11.457 7.16621 11.1654 7.72457 10.6396L7.73763 10.6271C7.79595 10.5713 7.87305 10.5403 7.95317 10.5403C8.03329 10.5403 8.11039 10.5713 8.1687 10.6271L8.18177 10.6396C8.74607 11.1645 9.48375 11.4558 10.2492 11.4558C11.0147 11.4558 11.7524 11.1645 12.3167 10.6396C12.3752 10.5845 12.4521 10.554 12.5318 10.554C12.6116 10.554 12.6884 10.5845 12.747 10.6396C13.3096 11.1629 14.0446 11.4539 14.8077 11.4557C15.5709 11.4574 16.3071 11.1696 16.872 10.6488C16.9297 10.5946 17.0054 10.5645 17.084 10.5645C17.1626 10.5645 17.2383 10.5946 17.2959 10.6488C17.8614 11.1728 18.6009 11.4609 19.3666 11.4556H19.4651C19.9559 11.437 20.4334 11.2888 20.8506 11.0257C20.8882 11.0028 20.9242 10.9787 20.9606 10.9546C21.2419 10.762 21.4868 10.5196 21.6834 10.239L21.7523 10.1333C21.7591 10.1226 21.7655 10.1113 21.7713 10.0996C21.837 9.96375 22.1893 9.26545 21.8643 8.55589Z" fill="#732FCB"/>
</svg>
