<svg width="18" height="21" viewBox="0 0 18 21" fill="none" xmlns="http://www.w3.org/2000/svg">
<path d="M18 7.44C17.9896 7.34813 17.9695 7.25763 17.94 7.17V7.08C17.8919 6.97718 17.8278 6.88267 17.75 6.8L11.75 0.8C11.6673 0.722216 11.5728 0.658081 11.47 0.61C11.4402 0.60576 11.4099 0.60576 11.38 0.61C11.2784 0.551741 11.1662 0.514344 11.05 0.5H7C6.20435 0.5 5.44129 0.816071 4.87868 1.37868C4.31607 1.94129 4 2.70435 4 3.5V4.5H3C2.20435 4.5 1.44129 4.81607 0.87868 5.37868C0.316071 5.94129 0 6.70435 0 7.5V17.5C0 18.2956 0.316071 19.0587 0.87868 19.6213C1.44129 20.1839 2.20435 20.5 3 20.5H11C11.7956 20.5 12.5587 20.1839 13.1213 19.6213C13.6839 19.0587 14 18.2956 14 17.5V16.5H15C15.7956 16.5 16.5587 16.1839 17.1213 15.6213C17.6839 15.0587 18 14.2956 18 13.5V7.5C18 7.5 18 7.5 18 7.44ZM12 3.91L14.59 6.5H13C12.7348 6.5 12.4804 6.39464 12.2929 6.20711C12.1054 6.01957 12 5.76522 12 5.5V3.91ZM12 17.5C12 17.7652 11.8946 18.0196 11.7071 18.2071C11.5196 18.3946 11.2652 18.5 11 18.5H3C2.73478 18.5 2.48043 18.3946 2.29289 18.2071C2.10536 18.0196 2 17.7652 2 17.5V7.5C2 7.23478 2.10536 6.98043 2.29289 6.79289C2.48043 6.60536 2.73478 6.5 3 6.5H4V13.5C4 14.2956 4.31607 15.0587 4.87868 15.6213C5.44129 16.1839 6.20435 16.5 7 16.5H12V17.5ZM16 13.5C16 13.7652 15.8946 14.0196 15.7071 14.2071C15.5196 14.3946 15.2652 14.5 15 14.5H7C6.73478 14.5 6.48043 14.3946 6.29289 14.2071C6.10536 14.0196 6 13.7652 6 13.5V3.5C6 3.23478 6.10536 2.98043 6.29289 2.79289C6.48043 2.60536 6.73478 2.5 7 2.5H10V5.5C10 6.29565 10.3161 7.05871 10.8787 7.62132C11.4413 8.18393 12.2044 8.5 13 8.5H16V13.5Z" fill="#732FCB"/>
</svg>
