<svg width="20" height="18" viewBox="0 0 20 18" fill="none" xmlns="http://www.w3.org/2000/svg">
<path d="M17.5 5.07182C17.5 5.56124 17.4618 6.03728 17.3893 6.49942C16.4551 6.56546 15.6299 7.04756 15.0822 7.76977C14.8722 8.04729 14.7021 8.36033 14.5833 8.69887C14.5101 8.49094 14.4181 8.29262 14.3091 8.10632C14.2407 7.98919 14.1659 7.87687 14.0845 7.76977C13.4937 6.99114 12.5814 6.49169 11.5568 6.49169C9.7762 6.49169 8.33333 7.99985 8.33333 9.86045C8.33333 12.1845 9.47998 14.0982 10.791 15.5267C9.61019 16.3377 8.75 16.7632 8.75 16.7632C8.75 16.7632 0 12.4355 0 5.07182C0 2.54679 2.02067 0.5 4.51253 0.5C6.45833 0.5 8.11605 1.74736 8.75 3.49553C9.38395 1.74736 11.0417 0.5 12.9875 0.5C15.4793 0.5 17.5 2.54679 17.5 5.07182Z" fill="#732FCB"/>
<path d="M14.5833 10.3435L13.7996 8.98955C13.3333 8.2036 12.5765 7.34765 11.5568 7.34765C10.2498 7.34765 9.16667 8.45855 9.16667 9.86045C9.16667 12.2219 10.5298 14.1632 12.0223 15.5723C12.7588 16.2675 13.4985 16.8058 14.0552 17.1703C14.1528 17.2343 14.2448 17.2927 14.3294 17.3456L14.5833 17.5C14.7266 17.4152 14.9064 17.3049 15.1115 17.1703C15.6681 16.8058 16.4079 16.2676 17.1444 15.5723C18.6369 14.1633 20 12.2219 20 9.86045C20 8.45855 18.9168 7.34765 17.6099 7.34765C16.5902 7.34765 15.8333 8.2036 15.367 8.98955L14.5833 10.3435Z" fill="#732FCB"/>
</svg>
