<svg width="20" height="20" viewBox="0 0 20 20" fill="none" xmlns="http://www.w3.org/2000/svg">
<path d="M18.056 10.0004H16.056C15.7908 10.0004 15.5365 10.1057 15.3489 10.2933C15.1614 10.4808 15.056 10.7352 15.056 11.0004C15.056 11.2656 15.1614 11.5199 15.3489 11.7075C15.5365 11.895 15.7908 12.0004 16.056 12.0004V14.0004H14.8718C14.9903 13.6801 15.0527 13.3418 15.056 13.0004C15.0561 12.34 14.8383 11.698 14.4363 11.174C14.0343 10.65 13.4706 10.2734 12.8326 10.1025C12.1947 9.93162 11.5182 9.97604 10.9081 10.2289C10.298 10.4817 9.78841 10.9288 9.45836 11.5009C9.39207 11.6146 9.34891 11.7404 9.33135 11.8709C9.31379 12.0014 9.32218 12.1341 9.35605 12.2614C9.38992 12.3886 9.44859 12.508 9.52869 12.6125C9.6088 12.717 9.70876 12.8047 9.82284 12.8705C9.93692 12.9362 10.0629 12.9788 10.1935 12.9958C10.324 13.0128 10.4567 13.0038 10.5838 12.9694C10.7109 12.9349 10.83 12.8757 10.9341 12.7952C11.0383 12.7146 11.1255 12.6142 11.1908 12.4999C11.2786 12.3481 11.4048 12.2221 11.5566 12.1344C11.7085 12.0468 11.8807 12.0005 12.056 12.0004C12.3212 12.0004 12.5756 12.1057 12.7631 12.2933C12.9507 12.4808 13.056 12.7352 13.056 13.0004C13.056 13.2656 12.9507 13.5199 12.7631 13.7075C12.5756 13.895 12.3212 14.0004 12.056 14.0004C11.7908 14.0004 11.5365 14.1057 11.3489 14.2933C11.1614 14.4808 11.056 14.7352 11.056 15.0004C11.056 15.2656 11.1614 15.5199 11.3489 15.7075C11.5365 15.895 11.7908 16.0004 12.056 16.0004C12.3212 16.0004 12.5756 16.1057 12.7631 16.2933C12.9507 16.4808 13.056 16.7352 13.056 17.0004C13.056 17.2656 12.9507 17.5199 12.7631 17.7075C12.5756 17.895 12.3212 18.0004 12.056 18.0004C11.8807 18.0002 11.7085 17.954 11.5566 17.8663C11.4048 17.7786 11.2786 17.6526 11.1908 17.5009C11.1255 17.3865 11.0383 17.2861 10.9341 17.2056C10.83 17.125 10.7109 17.0658 10.5838 17.0314C10.4567 16.9969 10.3241 16.9879 10.1935 17.0049C10.0629 17.0219 9.93692 17.0645 9.82285 17.1303C9.70877 17.1961 9.6088 17.2837 9.5287 17.3882C9.4486 17.4928 9.38993 17.6121 9.35606 17.7393C9.3222 17.8666 9.3138 17.9993 9.33136 18.1298C9.34892 18.2603 9.39208 18.3861 9.45837 18.4999C9.78842 19.0719 10.298 19.519 10.9081 19.7718C11.5182 20.0247 12.1947 20.0691 12.8326 19.8982C13.4705 19.7273 14.0342 19.3507 14.4362 18.8267C14.8383 18.3028 15.0561 17.6608 15.056 17.0004C15.0527 16.6589 14.9903 16.3206 14.8718 16.0004H16.056V19.0004C16.056 19.2656 16.1614 19.5199 16.3489 19.7075C16.5365 19.895 16.7908 20.0004 17.056 20.0004C17.3212 20.0004 17.5756 19.895 17.7631 19.7075C17.9507 19.5199 18.056 19.2656 18.056 19.0004V12.0004C18.3212 12.0004 18.5756 11.895 18.7631 11.7075C18.9507 11.5199 19.056 11.2656 19.056 11.0004C19.056 10.7352 18.9507 10.4808 18.7631 10.2933C18.5756 10.1057 18.3212 10.0004 18.056 10.0004ZM6.08631 9.24305C6.15067 9.50024 6.31456 9.72132 6.54193 9.85767C6.65451 9.92518 6.77929 9.96986 6.90914 9.98915C7.03899 10.0084 7.17136 10.002 7.29871 9.9701C7.42606 9.93823 7.54588 9.88159 7.65133 9.80341C7.75679 9.72523 7.84582 9.62705 7.91333 9.51447C7.98084 9.40189 8.02552 9.27711 8.04481 9.14726C8.0641 9.01741 8.05762 8.88504 8.02575 8.75769L6.26891 1.72791C6.1456 1.23448 5.86088 0.796432 5.46 0.483412C5.05913 0.170392 4.56512 0.000366211 4.05651 0.000366211C3.54791 0.000366211 3.0539 0.170392 2.65303 0.483412C2.25215 0.796432 1.96743 1.23448 1.84411 1.72791L0.0863045 8.75769C0.0219417 9.01488 0.0623824 9.2871 0.19873 9.51447C0.335077 9.74184 0.556162 9.90573 0.81335 9.9701C1.07054 10.0345 1.34276 9.99402 1.57013 9.85767C1.7975 9.72132 1.96139 9.50024 2.02575 9.24305L2.58654 7.00037H5.52581L6.08631 9.24305ZM3.08666 5.00037L3.78356 2.21326C3.80469 2.158 3.8421 2.11045 3.89084 2.0769C3.93958 2.04336 3.99735 2.0254 4.05651 2.0254C4.11568 2.0254 4.17345 2.04336 4.22219 2.0769C4.27093 2.11045 4.30834 2.158 4.32946 2.21326L5.02599 5.00037H3.08666ZM11.056 5.00037H12.056C12.3212 5.00064 12.5754 5.10608 12.7628 5.29356C12.9503 5.48104 13.0558 5.73524 13.056 6.00037V7.00037C13.056 7.26559 13.1614 7.51994 13.3489 7.70748C13.5365 7.89501 13.7908 8.00037 14.056 8.00037C14.3212 8.00037 14.5756 7.89501 14.7631 7.70748C14.9507 7.51994 15.056 7.26559 15.056 7.00037V6.00037C15.0552 5.20499 14.7388 4.44243 14.1764 3.88001C13.614 3.31759 12.8514 3.00124 12.056 3.00037H11.056C10.7908 3.00037 10.5365 3.10573 10.3489 3.29326C10.1614 3.4808 10.056 3.73515 10.056 4.00037C10.056 4.26559 10.1614 4.51994 10.3489 4.70748C10.5365 4.89501 10.7908 5.00037 11.056 5.00037ZM7.05603 14.0004H6.05603C5.79089 14.0001 5.53669 13.8947 5.34921 13.7072C5.16173 13.5197 5.05629 13.2655 5.05603 13.0004V12.0004C5.05603 11.7352 4.95067 11.4808 4.76313 11.2933C4.5756 11.1057 4.32124 11.0004 4.05602 11.0004C3.79081 11.0004 3.53645 11.1057 3.34892 11.2933C3.16138 11.4808 3.05602 11.7352 3.05602 12.0004V13.0004C3.05689 13.7958 3.37324 14.5583 3.93566 15.1207C4.49808 15.6832 5.26064 15.9995 6.05603 16.0004H7.05603C7.32124 16.0004 7.5756 15.895 7.76313 15.7075C7.95067 15.5199 8.05603 15.2656 8.05603 15.0004C8.05603 14.7352 7.95067 14.4808 7.76313 14.2933C7.5756 14.1057 7.32124 14.0004 7.05603 14.0004Z" fill="#732FCB"/>
</svg>
