<svg width="19" height="20" viewBox="0 0 19 20" fill="none" xmlns="http://www.w3.org/2000/svg">
<path fill-rule="evenodd" clip-rule="evenodd" d="M3.10645 8.8163C3.10645 5.32341 6.02528 2.50024 9.55591 2.50024C13.0965 2.50024 16.0153 5.32341 16.0153 8.8163C16.0153 10.5764 15.3752 12.2105 14.3216 13.5955C13.1593 15.1232 11.7267 16.4543 10.1141 17.4992C9.74503 17.7406 9.41196 17.7589 9.0069 17.4992C7.38516 16.4543 5.95254 15.1232 4.80017 13.5955C3.7458 12.2105 3.10645 10.5764 3.10645 8.8163ZM7.43022 9.01304C7.43022 10.1832 8.38504 11.1035 9.55579 11.1035C10.7273 11.1035 11.6913 10.1832 11.6913 9.01304C11.6913 7.85203 10.7273 6.88693 9.55579 6.88693C8.38504 6.88693 7.43022 7.85203 7.43022 9.01304Z" fill="white"/>
</svg>
