<svg width="24" height="20" viewBox="0 0 24 20" fill="none" xmlns="http://www.w3.org/2000/svg">
<path d="M15.2381 0.00170708C15.524 0.00170708 15.7983 0.118914 16.0005 0.327307C16.2027 0.535702 16.3163 0.818226 16.3163 1.11294L16.3163 5.5569C16.3163 5.8517 16.2027 6.13446 16.0006 6.34302C15.7984 6.55157 15.5241 6.66884 15.2381 6.6691C15.0964 6.6691 14.9561 6.64026 14.8252 6.58435C14.6943 6.52845 14.5754 6.44655 14.4753 6.34326C14.3752 6.23997 14.2958 6.11728 14.2416 5.98235C14.1875 5.84741 14.1597 5.70291 14.1598 5.5569V2.22417L2.65549 2.22417L2.65549 17.7792L14.155 17.7792V14.4455C14.1549 14.2996 14.1827 14.1552 14.2368 14.0203C14.291 13.8855 14.3704 13.7629 14.4705 13.6597C14.5707 13.5565 14.6896 13.4746 14.8205 13.4188C14.9513 13.363 15.0916 13.3344 15.2332 13.3346C15.5192 13.3346 15.7934 13.4515 15.9957 13.6599C16.1979 13.8683 16.3115 14.1508 16.3115 14.4455V18.8895C16.3112 19.1841 16.1975 19.4666 15.9954 19.6749C15.7932 19.8832 15.5191 20.0005 15.2332 20.0007L1.57823 20.0007C1.29226 20.0007 1.01801 19.8838 0.815804 19.6754C0.613596 19.467 0.5 19.1842 0.5 18.8895L0.5 1.11197C0.5 0.817251 0.613596 0.534727 0.815804 0.326334C1.01801 0.117939 1.29226 0.000732422 1.57823 0.000732422L15.2381 0.00170708ZM19.9536 5.88713L23.1883 9.22082C23.2125 9.24576 23.2358 9.27158 23.2571 9.29851C23.2783 9.32544 23.2764 9.32648 23.2861 9.33845C23.2958 9.35042 23.3093 9.36947 23.32 9.38643C23.3306 9.40338 23.3393 9.41817 23.348 9.43513C23.3567 9.45209 23.3655 9.46522 23.3742 9.48018C23.3829 9.49515 23.3897 9.51388 23.3984 9.53084C23.4071 9.5478 23.4139 9.56283 23.4197 9.57979C23.4255 9.59675 23.4313 9.61275 23.4371 9.62971C23.4429 9.64667 23.4497 9.6646 23.4545 9.68256C23.4596 9.69925 23.4638 9.71626 23.4671 9.73346C23.4671 9.75141 23.4768 9.7693 23.4806 9.78825C23.4845 9.8072 23.4864 9.82724 23.4893 9.84719C23.4922 9.86714 23.4952 9.88018 23.4952 9.89614C23.4985 9.93227 23.5001 9.96845 23.5 10.0048C23.5002 10.0407 23.4986 10.0766 23.4952 10.1124C23.4952 10.1303 23.4951 10.1453 23.4893 10.1633C23.4835 10.1812 23.4845 10.2013 23.4806 10.2212C23.4768 10.2412 23.4719 10.2581 23.4671 10.277C23.4637 10.2939 23.4595 10.3106 23.4545 10.3269C23.4487 10.3449 23.4429 10.3628 23.4371 10.3808C23.4313 10.3987 23.4255 10.4138 23.4197 10.4297C23.4139 10.4457 23.4051 10.4627 23.3974 10.4796C23.3896 10.4966 23.3829 10.5126 23.3742 10.5296C23.3655 10.5465 23.3567 10.5604 23.348 10.5753C23.3393 10.5903 23.3306 10.6074 23.3209 10.6233C23.3098 10.6402 23.2978 10.6564 23.2851 10.672L23.258 10.711C23.2358 10.7397 23.2119 10.7671 23.1864 10.7928L19.9527 14.1265C19.7504 14.3345 19.4762 14.4514 19.1905 14.4514C18.9047 14.4514 18.6306 14.3345 18.4282 14.1265C18.2261 13.918 18.1126 13.6352 18.1126 13.3404C18.1126 13.0456 18.2261 12.7628 18.4282 12.5543L19.822 11.1179L7.33621 11.1179C7.05025 11.1179 6.776 11.001 6.57379 10.7926C6.37158 10.5842 6.25798 10.3014 6.25798 10.0067C6.25798 9.71199 6.37158 9.42946 6.57379 9.22107C6.776 9.01267 7.05025 8.89547 7.33621 8.89547L19.822 8.89547L18.4282 7.45912C18.2264 7.25061 18.1131 6.96801 18.1131 6.67349C18.1131 6.37896 18.2264 6.0966 18.4282 5.8881C18.5282 5.78496 18.647 5.70304 18.7777 5.64725C18.9084 5.59145 19.0485 5.56293 19.19 5.56298C19.4747 5.56102 19.7486 5.67529 19.9517 5.88104L19.9536 5.88713Z" fill="#732FCB"/>
</svg>
