<svg width="22" height="24" viewBox="0 0 22 24" fill="none" xmlns="http://www.w3.org/2000/svg">
<path fill-rule="evenodd" clip-rule="evenodd" d="M13.7048 16.1573C12.9042 16.7067 11.9628 17 10.9999 17C9.70902 16.9984 8.47151 16.4711 7.55875 15.5338C6.646 14.5964 6.13254 13.3256 6.13099 12C6.13099 11.0111 6.41654 10.0444 6.95154 9.22213C7.48654 8.39989 8.24695 7.75902 9.13662 7.38059C10.0263 7.00215 11.0053 6.90313 11.9497 7.09606C12.8942 7.28898 13.7617 7.76519 14.4427 8.46445C15.1236 9.16371 15.5873 10.0546 15.7752 11.0245C15.963 11.9944 15.8666 12.9998 15.4981 13.9134C15.1296 14.827 14.5055 15.6079 13.7048 16.1573ZM12.6228 9.50557C12.1424 9.17593 11.5776 8.99998 10.9999 8.99998C10.2251 8.99998 9.48202 9.31605 8.93417 9.87866C8.38631 10.4413 8.07853 11.2043 8.07853 12C8.07853 12.5933 8.24987 13.1733 8.57086 13.6667C8.89186 14.16 9.34811 14.5446 9.88191 14.7716C10.4157 14.9987 11.0031 15.0581 11.5698 14.9423C12.1365 14.8266 12.657 14.5409 13.0655 14.1213C13.4741 13.7017 13.7523 13.1672 13.865 12.5853C13.9778 12.0033 13.9199 11.4001 13.6988 10.8519C13.4777 10.3038 13.1033 9.83522 12.6228 9.50557Z" fill="#732FCB"/>
<path fill-rule="evenodd" clip-rule="evenodd" d="M1.36647 18.867L0.3927 17.134C0.00695028 16.4453 -0.0970148 15.6276 0.103615 14.8602C0.304244 14.0929 0.793082 13.4387 1.46288 13.041L2.2565 12.57C2.22923 12.1939 2.22923 11.8161 2.2565 11.44L1.46288 10.969C1.13024 10.7722 0.838634 10.51 0.604745 10.1973C0.370855 9.88469 0.199265 9.52778 0.099784 9.147C0.000303023 8.76622 -0.0251174 8.36903 0.0249761 7.97816C0.0750696 7.58728 0.199695 7.21038 0.391726 6.869L1.3655 5.136C1.75387 4.44752 2.39212 3.94517 3.14044 3.73899C3.88877 3.53281 4.68617 3.63961 5.35796 4.036L6.15354 4.508C6.45869 4.29887 6.77645 4.10983 7.10491 3.942V3C7.10491 2.20435 7.41269 1.44129 7.96055 0.87868C8.5084 0.316071 9.25145 0 10.0262 0H11.9738C12.7486 0 13.4916 0.316071 14.0395 0.87868C14.5873 1.44129 14.8951 2.20435 14.8951 3V3.942C15.2233 4.10659 15.541 4.29229 15.8465 4.498L16.642 4.026C17.3138 3.62961 18.1112 3.52281 18.8596 3.72899C19.6079 3.93517 20.2461 4.43752 20.6345 5.126L21.6083 6.859C21.8003 7.20038 21.9249 7.57728 21.975 7.96816C22.0251 8.35903 21.9997 8.75622 21.9002 9.137C21.8007 9.51778 21.6291 9.87469 21.3953 10.1873C21.1614 10.5 20.8698 10.7622 20.5371 10.959L19.7435 11.43C19.7708 11.8061 19.7708 12.1839 19.7435 12.56L20.5371 13.031C20.8698 13.2278 21.1614 13.49 21.3953 13.8027C21.6291 14.1153 21.8007 14.4722 21.9002 14.853C21.9997 15.2338 22.0251 15.631 21.975 16.0218C21.9249 16.4127 21.8003 16.7896 21.6083 17.131L20.6345 18.864C20.4428 19.2056 20.1875 19.5051 19.8831 19.7452C19.5786 19.9854 19.2311 20.1616 18.8603 20.2638C18.4895 20.366 18.1027 20.3921 17.7221 20.3406C17.3415 20.2892 16.9745 20.1612 16.642 19.964L15.8465 19.492C15.5413 19.7011 15.2235 19.8902 14.8951 20.058V21C14.8951 21.7957 14.5873 22.5587 14.0395 23.1213C13.4916 23.6839 12.7486 24 11.9738 24H10.0262C9.25145 24 8.5084 23.6839 7.96055 23.1213C7.41269 22.5587 7.10491 21.7957 7.10491 21V20.058C6.77686 19.8911 6.45943 19.7031 6.15451 19.495L5.35894 19.967C4.68714 20.3634 3.88974 20.4702 3.14142 20.264C2.39309 20.0578 1.75484 19.5555 1.36647 18.867ZM3.78045 13.968L2.43762 14.768C2.21397 14.9006 2.04981 15.119 1.98297 15.3752C1.91613 15.6314 1.95112 15.9043 2.08025 16.134L3.05402 17.866C3.18315 18.0957 3.39584 18.2633 3.64529 18.3319C3.89475 18.4005 4.16054 18.3646 4.38419 18.232L5.72605 17.437C5.89563 17.3424 6.08798 17.2995 6.28049 17.3133C6.47299 17.3272 6.65766 17.3971 6.81278 17.515C7.30993 17.9149 7.8589 18.2417 8.44385 18.486C8.62366 18.5607 8.77765 18.6888 8.88609 18.854C8.99452 19.0192 9.05245 19.2138 9.05246 19.413V21C9.05246 21.2652 9.15505 21.5196 9.33767 21.7071C9.52028 21.8946 9.76797 22 10.0262 22H11.9738C12.232 22 12.4797 21.8946 12.6623 21.7071C12.845 21.5196 12.9475 21.2652 12.9475 21V19.414C12.9475 19.2148 13.0055 19.0202 13.1139 18.855C13.2223 18.6898 13.3763 18.5617 13.5562 18.487C14.1411 18.2427 14.6901 17.9159 15.1872 17.516C15.3402 17.3932 15.5253 17.3202 15.719 17.3063C15.9126 17.2924 16.1059 17.3383 16.274 17.438L17.6158 18.233C17.8395 18.3656 18.1053 18.4015 18.3547 18.3329C18.6042 18.2643 18.8168 18.0967 18.946 17.867L19.9198 16.135C20.0489 15.9053 20.0839 15.6324 20.017 15.3762C19.9502 15.12 19.787 14.9016 19.5634 14.769L18.2205 13.969C18.0534 13.8697 17.9188 13.7216 17.8339 13.5435C17.7489 13.3655 17.7174 13.1655 17.7434 12.969C17.7891 12.6481 17.8135 12.3243 17.8164 12C17.8135 11.676 17.7891 11.3526 17.7434 11.032C17.7174 10.8355 17.7489 10.6355 17.8339 10.4575C17.9188 10.2794 18.0534 10.1313 18.2205 10.032L19.5634 9.232C19.787 9.09939 19.9502 8.88097 20.017 8.6248C20.0839 8.36863 20.0489 8.09568 19.9198 7.866L18.946 6.134C18.8168 5.90433 18.6042 5.73674 18.3547 5.6681C18.1053 5.59946 17.8395 5.6354 17.6158 5.768L16.274 6.563C16.1059 6.66271 15.9126 6.70856 15.719 6.69466C15.5253 6.68076 15.3402 6.60775 15.1872 6.485C14.6901 6.08514 14.1411 5.75833 13.5562 5.514C13.3763 5.4393 13.2223 5.31116 13.1139 5.146C13.0055 4.98084 12.9475 4.78619 12.9475 4.587V3C12.9475 2.73478 12.845 2.48043 12.6623 2.29289C12.4797 2.10536 12.232 2 11.9738 2H10.0262C9.76797 2 9.52028 2.10536 9.33767 2.29289C9.15505 2.48043 9.05246 2.73478 9.05246 3V4.587C9.05245 4.78619 8.99452 4.98084 8.88609 5.146C8.77765 5.31116 8.62366 5.4393 8.44385 5.514C7.8589 5.75833 7.30993 6.08514 6.81278 6.485C6.66034 6.60853 6.47543 6.68244 6.28178 6.69723C6.08813 6.71202 5.8946 6.66701 5.72605 6.568L4.38419 5.768C4.16054 5.6354 3.89475 5.59946 3.64529 5.6681C3.39584 5.73674 3.18315 5.90433 3.05402 6.134L2.08025 7.866C1.95182 8.09562 1.91732 8.36817 1.98432 8.62388C2.05131 8.87958 2.21433 9.09756 2.43762 9.23L3.78045 10.03C3.94757 10.1293 4.08216 10.2774 4.16712 10.4555C4.25208 10.6335 4.28357 10.8335 4.2576 11.03C4.17289 11.6731 4.17289 12.3249 4.2576 12.968C4.28357 13.1645 4.25208 13.3645 4.16712 13.5425C4.08216 13.7206 3.94757 13.8687 3.78045 13.968Z" fill="#732FCB"/>
</svg>
