<svg width="20" height="20" viewBox="0 0 20 20" fill="none" xmlns="http://www.w3.org/2000/svg">
<g clip-path="url(#clip0_238_5373)">
<path d="M15.5859 15.0073C14.7227 13.5073 13.1016 12.4995 11.25 12.4995H8.75C6.89844 12.4995 5.27734 13.5073 4.41406 15.0073C5.78906 16.5386 7.78125 17.4995 10 17.4995C12.2188 17.4995 14.2109 16.5347 15.5859 15.0073ZM20 9.99951C20 15.5229 15.5234 19.9995 10 19.9995C4.47656 19.9995 0 15.5229 0 9.99951C0 4.47607 4.47656 -0.000488281 10 -0.000488281C15.5234 -0.000488281 20 4.47607 20 9.99951ZM10 10.6245C11.5547 10.6245 12.8125 9.3667 12.8125 7.81201C12.8125 6.25732 11.5547 4.99951 10 4.99951C8.44531 4.99951 7.1875 6.25732 7.1875 7.81201C7.1875 9.3667 8.44531 10.6245 10 10.6245Z" fill="#732FCB"/>
</g>
<defs>
<clipPath id="clip0_238_5373">
<rect width="20" height="20" fill="white"/>
</clipPath>
</defs>
</svg>
