<svg width="16" height="17" viewBox="0 0 16 17" fill="none" xmlns="http://www.w3.org/2000/svg">
<g clip-path="url(#clip0_252_8060)">
<path fill-rule="evenodd" clip-rule="evenodd" d="M15.6702 7.55999L14.5902 6.21999C14.4202 5.99999 14.3102 5.73999 14.2802 5.44999L14.0902 3.74999C14.0517 3.41054 13.8992 3.09419 13.6576 2.85262C13.416 2.61105 13.0997 2.45853 12.7602 2.41999L11.0602 2.22999C10.7602 2.19999 10.5002 2.06999 10.2802 1.89999L8.94023 0.81999C8.39023 0.37999 7.61023 0.37999 7.06023 0.81999L5.72023 1.89999C5.50023 2.06999 5.24023 2.17999 4.95023 2.20999L3.25023 2.39999C2.55023 2.47999 2.00023 3.02999 1.92023 3.72999L1.73023 5.42999C1.70023 5.72999 1.57023 5.98999 1.40023 6.20999L0.320234 7.54999C-0.119766 8.09999 -0.119766 8.87999 0.320234 9.42999L1.40023 10.77C1.57023 10.99 1.68023 11.25 1.71023 11.54L1.90023 13.24C1.98023 13.94 2.53023 14.49 3.23023 14.57L4.93023 14.76C5.23023 14.79 5.49023 14.92 5.71023 15.09L7.05023 16.17C7.60023 16.61 8.38023 16.61 8.93023 16.17L10.2702 15.09C10.4902 14.92 10.7502 14.81 11.0402 14.78L12.7402 14.59C13.4402 14.51 13.9902 13.96 14.0702 13.26L14.2602 11.56C14.2902 11.26 14.4202 11 14.5902 10.78L15.6702 9.43999C16.1102 8.88999 16.1102 8.10999 15.6702 7.55999ZM6.50023 12.5L3.00023 8.99999L4.50023 7.49999L6.50023 9.49999L11.5002 4.49999L13.0002 6.04999L6.50023 12.5Z" fill="white"/>
</g>
<defs>
<clipPath id="clip0_252_8060">
<rect width="16" height="16" fill="white" transform="translate(0 0.5)"/>
</clipPath>
</defs>
</svg>
